<?xml version="1.0" encoding="iso-8859-1"?>
<!-- Generator: Adobe Illustrator 19.0.0, SVG Export Plug-In . SVG Version: 6.00 Build 0)  -->
<svg version="1.1" id="Capa_1" xmlns="http://www.w3.org/2000/svg" xmlns:xlink="http://www.w3.org/1999/xlink" x="0px" y="0px"
	 viewBox="0 0 472 472" style="enable-background:new 0 0 472 472;" xml:space="preserve">
<path style="fill:#E47700;" d="M252,368h72c8.837,0,16-7.163,16-16V168c0-26.51,21.49-48,48-48s48,21.49,48,48v8
	c0,8.837-7.163,16-16,16s-16-7.163-16-16v-8c0-8.837-7.163-16-16-16s-16,7.163-16,16v184c0,26.51-21.49,48-48,48h-72V368z"/>
<path style="fill:#FF8800;" d="M244,392v32h24l15.296-92.464c0.469-2.35,0.705-4.74,0.704-7.136c0-20.103-16.297-36.4-36.4-36.4
	H80.4C60.297,288,44,304.297,44,324.4c-0.001,2.396,0.235,4.786,0.704,7.136L60,424h24v-32H244z"/>
<path style="fill:#FDB62F;" d="M164,176c29.418,0.001,56.31,16.623,69.464,42.936l2.336,4.672c5.392,10.783,8.199,22.672,8.2,34.728
	V424h-32V320h-96v104H84V258.336c0-12.058,2.807-23.951,8.2-34.736l2.336-4.672C107.693,192.618,134.584,176,164,176z"/>
<g>
	<circle style="fill:#FF8800;" cx="80" cy="28" r="28"/>
	<circle style="fill:#FF8800;" cx="248" cy="28" r="28"/>
</g>
<path style="fill:#FF421D;" d="M36,424h256v48H36V424z"/>
<path style="fill:#FFA900;" d="M125.272,24h77.448c14.818,0.001,27.698,10.176,31.128,24.592l24.8,104
	c4.091,17.193-6.53,34.447-23.723,38.539c-2.437,0.58-4.933,0.872-7.437,0.869H100.512c-17.673-0.001-31.999-14.33-31.997-32.003
	c0-2.494,0.292-4.979,0.869-7.405l24.8-104C97.611,34.191,110.469,24.02,125.272,24z"/>
<g>
	<path style="fill:#763A02;" d="M116,56L116,56c4.418,0,8,3.582,8,8l0,0c0,4.418-3.582,8-8,8l0,0c-4.418,0-8-3.582-8-8l0,0
		C108,59.582,111.582,56,116,56z"/>
	<path style="fill:#763A02;" d="M212,56L212,56c4.418,0,8,3.582,8,8l0,0c0,4.418-3.582,8-8,8l0,0c-4.418,0-8-3.582-8-8l0,0
		C204,59.582,207.582,56,212,56z"/>
</g>
<path style="fill:#FF8800;" d="M148,24l-8,88h48l-8-88H148z"/>
<path style="fill:#763A02;" d="M196,136v4c0,6.627-5.373,12-12,12s-12-5.373-12-12v-20h-16v20c0,6.627-5.373,12-12,12
	s-12-5.373-12-12v-4h-16v4c-0.021,15.442,12.48,27.977,27.922,27.998c7.562,0.01,14.805-3.043,20.078-8.462
	c10.768,11.068,28.47,11.311,39.538,0.542c5.42-5.273,8.473-12.517,8.462-20.078v-4H196z"/>
<path style="fill:#6CBBC7;" d="M100,424l32,48l32-48H100z"/>
<g>
	<path style="fill:#FF421D;" d="M132,472h64l-32-48L132,472z"/>
	<path style="fill:#FF421D;" d="M68,472h64l-32-48L68,472z"/>
</g>
<path style="fill:#6CBBC7;" d="M36,424l32,48l32-48H36z"/>
<path style="fill:#FF421D;" d="M36,472h32l-32-48V472z"/>
<path style="fill:#6CBBC7;" d="M228,424l32,48l32-48H228z"/>
<path style="fill:#FF421D;" d="M260,472h32v-48L260,472z"/>
<path style="fill:#6CBBC7;" d="M164,424l32,48l32-48H164z"/>
<path style="fill:#FF421D;" d="M196,472h64l-32-48L196,472z"/>
<g>
	<path style="fill:#763A02;" d="M228,120h56v16h-56V120z"/>
	<path style="fill:#763A02;" d="M228,152h56v16h-56V152z"/>
	<path style="fill:#763A02;" d="M44,120h56v16H44V120z"/>
	<path style="fill:#763A02;" d="M44,152h56v16H44V152z"/>
	<path style="fill:#763A02;" d="M196,240c0,8.837,7.163,16,16,16h31.864c-0.3-11.107-2.982-22.019-7.864-32h-24
		C203.163,224,196,231.163,196,240z"/>
	<path style="fill:#763A02;" d="M132,240c0-8.837-7.163-16-16-16H92c-4.893,9.978-7.586,20.891-7.896,32H116
		C124.837,256,132,248.837,132,240z"/>
	<path style="fill:#763A02;" d="M156,96h16c8.837,0,16,7.163,16,16l0,0c0,8.837-7.163,16-16,16h-16c-8.837,0-16-7.163-16-16l0,0
		C140,103.163,147.163,96,156,96z"/>
</g>
<g>
</g>
<g>
</g>
<g>
</g>
<g>
</g>
<g>
</g>
<g>
</g>
<g>
</g>
<g>
</g>
<g>
</g>
<g>
</g>
<g>
</g>
<g>
</g>
<g>
</g>
<g>
</g>
<g>
</g>
</svg>
