<?xml version="1.0" encoding="iso-8859-1"?>
<!-- Generator: Adobe Illustrator 19.0.0, SVG Export Plug-In . SVG Version: 6.00 Build 0)  -->
<svg version="1.1" id="Capa_1" xmlns="http://www.w3.org/2000/svg" xmlns:xlink="http://www.w3.org/1999/xlink" x="0px" y="0px"
	 viewBox="0 0 464 464" style="enable-background:new 0 0 464 464;" xml:space="preserve">
<path style="fill:#FCE9CC;" d="M40,64h384v256H40V64z"/>
<g>
	<path style="fill:#FFA900;" d="M72,96h136v192H72V96z"/>
	<path style="fill:#FFA900;" d="M256,96h136v192H256V96z"/>
</g>
<g>
	<path style="fill:#FF421D;" d="M40,0h384v64H40V0z"/>
	<path style="fill:#FF421D;" d="M40,320h384v144H40V320z"/>
</g>
<path style="fill:#6CBBC7;" d="M168,352h128c0,13.255,10.745,24,24,24v32c-13.255,0-24,10.745-24,24H168c0-13.255-10.745-24-24-24
	v-32C157.255,376,168,365.255,168,352z"/>
<path style="fill:#E47700;" d="M104,288v-48c0-8.837,7.163-16,16-16h40c8.837,0,16,7.163,16,16v48H104z"/>
<path style="fill:#FCE9CC;" d="M120,184v20c0,11.046,8.954,20,20,20s20-8.954,20-20v-20H120z"/>
<path style="fill:#763A02;" d="M120,184h40c8.837,0,16-7.163,16-16v-32c0,8.837-7.163,16-16,16h-24c-8.837,0-16,7.163-16,16V184z"/>
<path style="fill:#FF6536;" d="M288,288v-48c0-8.837,7.163-16,16-16h40c8.837,0,16,7.163,16,16v48H288z"/>
<path style="fill:#FCE9CC;" d="M304,184v20c0,11.046,8.954,20,20,20s20-8.954,20-20v-20H304z"/>
<path style="fill:#763A02;" d="M304,184v-12c0-11.046,8.954-20,20-20s20,8.954,20,20v12H304z"/>
<g>
</g>
<g>
</g>
<g>
</g>
<g>
</g>
<g>
</g>
<g>
</g>
<g>
</g>
<g>
</g>
<g>
</g>
<g>
</g>
<g>
</g>
<g>
</g>
<g>
</g>
<g>
</g>
<g>
</g>
</svg>
