<?xml version="1.0" encoding="iso-8859-1"?>
<!-- Generator: Adobe Illustrator 19.0.0, SVG Export Plug-In . SVG Version: 6.00 Build 0)  -->
<svg version="1.1" id="Capa_1" xmlns="http://www.w3.org/2000/svg" xmlns:xlink="http://www.w3.org/1999/xlink" x="0px" y="0px"
	 viewBox="0 0 464 464" style="enable-background:new 0 0 464 464;" xml:space="preserve">
<path style="fill:#6CBBC7;" d="M0,120h464v224H0V120z"/>
<g>
	<path style="fill:#FF6536;" d="M336,176c13.255,0,24-10.745,24-24h48c0,13.255,10.745,24,24,24v112c-13.255,0-24,10.745-24,24h-48
		c0-13.255-10.745-24-24-24V176z"/>
	<path style="fill:#FF6536;" d="M32,184c17.673,0,32-14.327,32-32h176c0,17.673,14.327,32,32,32v96c-17.673,0-32,14.327-32,32H64
		c0-17.673-14.327-32-32-32V184z"/>
</g>
<g>
	<path style="fill:#FCE9CC;" d="M296,120h16v24h-16V120z"/>
	<path style="fill:#FCE9CC;" d="M296,160h16v16h-16V160z"/>
	<path style="fill:#FCE9CC;" d="M296,192h16v16h-16V192z"/>
	<path style="fill:#FCE9CC;" d="M296,224h16v16h-16V224z"/>
	<path style="fill:#FCE9CC;" d="M296,256h16v16h-16V256z"/>
	<path style="fill:#FCE9CC;" d="M296,288h16v16h-16V288z"/>
	<path style="fill:#FCE9CC;" d="M296,320h16v24h-16V320z"/>
	<path style="fill:#FCE9CC;" d="M104,272h96v16h-96V272z"/>
</g>
<path style="fill:#FBBF00;" d="M80,248h144l-16-16l16-16H80l16,16L80,248z"/>
<g>
	<path style="fill:#FCE9CC;" d="M104,176h96v16h-96V176z"/>
	<path style="fill:#FCE9CC;" d="M360,192h16v88h-16V192z"/>
	<path style="fill:#FCE9CC;" d="M392,192h16v88h-16V192z"/>
</g>
<g>
</g>
<g>
</g>
<g>
</g>
<g>
</g>
<g>
</g>
<g>
</g>
<g>
</g>
<g>
</g>
<g>
</g>
<g>
</g>
<g>
</g>
<g>
</g>
<g>
</g>
<g>
</g>
<g>
</g>
</svg>
