<?xml version="1.0" encoding="iso-8859-1"?>
<!-- Generator: Adobe Illustrator 19.0.0, SVG Export Plug-In . SVG Version: 6.00 Build 0)  -->
<svg version="1.1" id="Capa_1" xmlns="http://www.w3.org/2000/svg" xmlns:xlink="http://www.w3.org/1999/xlink" x="0px" y="0px"
	 viewBox="0 0 480 480" style="enable-background:new 0 0 480 480;" xml:space="preserve">
<g>
	<path style="fill:#B3B3B3;" d="M208,304h-16V16H88v288H72V0h136V304z"/>
	<path style="fill:#B3B3B3;" d="M408,304h-16V16H288v288h-16V0h136V304z"/>
</g>
<path style="fill:#763A02;" d="M464,464V56c-0.035-30.913-25.087-55.965-56-56H72C41.087,0.035,16.035,25.087,16,56v408H0v16h48v-16
	H32V56c0.026-22.08,17.92-39.974,40-40h336c22.08,0.026,39.974,17.92,40,40v408h-16v16h48v-16H464z"/>
<path style="fill:#FF6536;" d="M72,304h12.688c7.243,0,14.19,2.878,19.312,8s12.069,8,19.312,8h33.376c7.243,0,14.19-2.878,19.312-8
	s12.069-8,19.312-8H208c8.837,0,16,7.163,16,16s-7.163,16-16,16h-4.688c-7.243,0-14.19,2.878-19.312,8s-12.069,8-19.312,8h-49.376
	c-7.243,0-14.19-2.878-19.312-8s-12.069-8-19.312-8H72c-8.837,0-16-7.163-16-16S63.163,304,72,304L72,304z"/>
<path style="fill:#6CBBC7;" d="M272,304h12.688c7.243,0,14.19,2.878,19.312,8s12.069,8,19.312,8h33.376
	c7.243,0,14.19-2.878,19.312-8s12.069-8,19.312-8H408c8.837,0,16,7.163,16,16s-7.163,16-16,16h-4.688c-7.243,0-14.19,2.878-19.312,8
	s-12.069,8-19.312,8h-49.376c-7.243,0-14.19-2.878-19.312-8s-12.069-8-19.312-8H272c-8.837,0-16-7.163-16-16S263.163,304,272,304z"
	/>
<g>
</g>
<g>
</g>
<g>
</g>
<g>
</g>
<g>
</g>
<g>
</g>
<g>
</g>
<g>
</g>
<g>
</g>
<g>
</g>
<g>
</g>
<g>
</g>
<g>
</g>
<g>
</g>
<g>
</g>
</svg>
