<?xml version="1.0" encoding="iso-8859-1"?>
<!-- Generator: Adobe Illustrator 19.0.0, SVG Export Plug-In . SVG Version: 6.00 Build 0)  -->
<svg version="1.1" id="Capa_1" xmlns="http://www.w3.org/2000/svg" xmlns:xlink="http://www.w3.org/1999/xlink" x="0px" y="0px"
	 viewBox="0 0 464 464" style="enable-background:new 0 0 464 464;" xml:space="preserve">
<path style="fill:#6CBBC7;" d="M128,128c35.346,0,64,28.654,64,64v56c0,35.346,28.654,64,64,64h16c44.183,0,80,35.817,80,80H160
	c-53.019,0-96-42.981-96-96V192C64,156.654,92.654,128,128,128z"/>
<g>
	<path style="fill:#36717A;" d="M352,392c26.51,0,48,21.49,48,48v24c-26.51,0-48-21.49-48-48l0,0V392z"/>
	<path style="fill:#36717A;" d="M400,320v24c0,26.51-21.49,48-48,48v-24C352,341.49,373.49,320,400,320z"/>
	<path style="fill:#36717A;" d="M152,360c26.51,0,48,21.49,48,48v24c-26.51,0-48-21.49-48-48V360z"/>
</g>
<path style="fill:#FF8800;" d="M128,0L128,0c35.346,0,64,28.654,64,64l0,0c0,35.346-28.654,64-64,64l0,0c-35.346,0-64-28.654-64-64
	l0,0C64,28.654,92.654,0,128,0z"/>
<path style="fill:#FDB62F;" d="M128,0c35.345,35.347,35.345,92.653,0,128C92.655,92.653,92.655,35.347,128,0z"/>
<g>
	<path style="fill:#36717A;" d="M152,208v8c0,4.418-3.582,8-8,8s-8-3.582-8-8v-24h-16v24c0,4.418-3.582,8-8,8s-8-3.582-8-8v-8H88v8
		c-0.058,13.197,10.593,23.943,23.79,24.002c5.995,0.027,11.781-2.201,16.21-6.242c9.75,8.894,24.864,8.2,33.758-1.55
		c4.04-4.429,6.268-10.215,6.242-16.21v-8L152,208z"/>
	<path style="fill:#36717A;" d="M96,168L96,168c4.418,0,8,3.582,8,8l0,0c0,4.418-3.582,8-8,8l0,0c-4.418,0-8-3.582-8-8l0,0
		C88,171.582,91.582,168,96,168z"/>
	<path style="fill:#36717A;" d="M160,168L160,168c4.418,0,8,3.582,8,8l0,0c0,4.418-3.582,8-8,8l0,0c-4.418,0-8-3.582-8-8l0,0
		C152,171.582,155.582,168,160,168z"/>
</g>
<g>
</g>
<g>
</g>
<g>
</g>
<g>
</g>
<g>
</g>
<g>
</g>
<g>
</g>
<g>
</g>
<g>
</g>
<g>
</g>
<g>
</g>
<g>
</g>
<g>
</g>
<g>
</g>
<g>
</g>
</svg>
