<?xml version="1.0" encoding="iso-8859-1"?>
<!-- Generator: Adobe Illustrator 19.0.0, SVG Export Plug-In . SVG Version: 6.00 Build 0)  -->
<svg version="1.1" id="Capa_1" xmlns="http://www.w3.org/2000/svg" xmlns:xlink="http://www.w3.org/1999/xlink" x="0px" y="0px"
	 viewBox="0 0 480 480" style="enable-background:new 0 0 480 480;" xml:space="preserve">
<g>
	<path style="fill:#B3B3B3;" d="M40,220h16v232H40V220z"/>
	<path style="fill:#B3B3B3;" d="M104,276h16v176h-16V276z"/>
	<path style="fill:#B3B3B3;" d="M168,268h16v184h-16V268z"/>
	<path style="fill:#B3B3B3;" d="M232,212h16v240h-16V212z"/>
	<path style="fill:#B3B3B3;" d="M296,164h16v288h-16V164z"/>
	<path style="fill:#B3B3B3;" d="M360,180h16v272h-16V180z"/>
	<path style="fill:#B3B3B3;" d="M424,204h16v248h-16V204z"/>
</g>
<path style="fill:#763A02;" d="M280,140h16v32h-16V140z"/>
<path style="fill:#FF421D;" d="M272,140h104V92h-56C293.49,92,272,113.49,272,140z"/>
<path style="fill:#763A02;" d="M352,140h16v32h-16V140z"/>
<path style="fill:#FFA900;" d="M320,92V72c0-11.046,8.954-20,20-20s20,8.954,20,20v20H320z"/>
<path style="fill:#763A02;" d="M340,28L340,28c6.627,0,12,5.373,12,12l0,0c0,6.627-5.373,12-12,12l0,0c-6.627,0-12-5.373-12-12l0,0
	C328,33.373,333.373,28,340,28z"/>
<path style="fill:#6CBBC7;" d="M140.88,285.952c-1.208,0-2.4,0-3.64-0.08c-24.58-1.052-47.603-12.322-63.512-31.088l-7.864-9.288
	C52.196,229.31,32.081,219.98,10.896,220H0v-16h10.896c25.905-0.019,50.497,11.399,67.2,31.2l7.872,9.288
	c25.681,30.36,71.11,34.153,101.47,8.473c1.526-1.29,2.997-2.644,4.41-4.057l65.952-65.952c34.39-34.312,90.066-34.312,124.456,0
	c13.473,13.523,31.791,21.101,50.88,21.048H480v16h-46.864c-23.351,0.062-45.757-9.219-62.224-25.776
	c-28.137-28.079-73.695-28.079-101.832,0l-65.952,65.952C186.603,276.66,164.221,285.928,140.88,285.952L140.88,285.952z"/>
<g>
</g>
<g>
</g>
<g>
</g>
<g>
</g>
<g>
</g>
<g>
</g>
<g>
</g>
<g>
</g>
<g>
</g>
<g>
</g>
<g>
</g>
<g>
</g>
<g>
</g>
<g>
</g>
<g>
</g>
</svg>
