<?xml version="1.0" encoding="iso-8859-1"?>
<!-- Generator: Adobe Illustrator 19.0.0, SVG Export Plug-In . SVG Version: 6.00 Build 0)  -->
<svg version="1.1" id="Capa_1" xmlns="http://www.w3.org/2000/svg" xmlns:xlink="http://www.w3.org/1999/xlink" x="0px" y="0px"
	 viewBox="0 0 464 464" style="enable-background:new 0 0 464 464;" xml:space="preserve">
<path style="fill:#FFA900;" d="M128,464V344c0-13.255,10.745-24,24-24h56c13.255,0,24-10.745,24-24s-10.745-24-24-24h-40
	c-13.255,0-24-10.745-24-24s10.745-24,24-24h72c13.255,0,24-10.745,24-24s-10.745-24-24-24H96c-53.019,0-96,42.981-96,96v192H128z"
	/>
<path style="fill:#6CBBC7;" d="M336,464V168c0-13.255-10.745-24-24-24h-96c-13.255,0-24-10.745-24-24s10.745-24,24-24h56
	c13.255,0,24-10.745,24-24s-10.745-24-24-24h-88c-13.255,0-24-10.745-24-24s10.745-24,24-24h184c53.019,0,96,42.981,96,96v368H336z"
	/>
<g>
	<path style="fill:#808080;" d="M400,48L400,48c13.255,0,24,10.745,24,24l0,0c0,13.255-10.745,24-24,24l0,0
		c-13.255,0-24-10.745-24-24l0,0C376,58.745,386.745,48,400,48z"/>
	<path style="fill:#808080;" d="M64,224L64,224c13.255,0,24,10.745,24,24l0,0c0,13.255-10.745,24-24,24l0,0
		c-13.255,0-24-10.745-24-24l0,0C40,234.745,50.745,224,64,224z"/>
</g>
<g>
	<path style="fill:#B3B3B3;" d="M16,16h96c8.837,0,16,7.163,16,16v41.376c0.001,4.243,1.687,8.312,4.688,11.312L160,112H16
		c-8.837,0-16-7.163-16-16V32C0,23.163,7.163,16,16,16z"/>
	<path style="fill:#B3B3B3;" d="M160,368h112c8.837,0,16,7.163,16,16v32c0,8.837-7.163,16-16,16h-64c-8.837,0-16-7.163-16-16v-9.376
		c-0.001-4.243-1.687-8.312-4.688-11.312L160,368z"/>
</g>
<g>
	<path style="fill:#763A02;" d="M32,56L32,56c4.418,0,8,3.582,8,8l0,0c0,4.418-3.582,8-8,8l0,0c-4.418,0-8-3.582-8-8l0,0
		C24,59.582,27.582,56,32,56z"/>
	<path style="fill:#763A02;" d="M64,56L64,56c4.418,0,8,3.582,8,8l0,0c0,4.418-3.582,8-8,8l0,0c-4.418,0-8-3.582-8-8l0,0
		C56,59.582,59.582,56,64,56z"/>
	<path style="fill:#763A02;" d="M96,56L96,56c4.418,0,8,3.582,8,8l0,0c0,4.418-3.582,8-8,8l0,0c-4.418,0-8-3.582-8-8l0,0
		C88,59.582,91.582,56,96,56z"/>
	<path style="fill:#763A02;" d="M224,392L224,392c4.418,0,8,3.582,8,8l0,0c0,4.418-3.582,8-8,8l0,0c-4.418,0-8-3.582-8-8l0,0
		C216,395.582,219.582,392,224,392z"/>
	<path style="fill:#763A02;" d="M256,392L256,392c4.418,0,8,3.582,8,8l0,0c0,4.418-3.582,8-8,8l0,0c-4.418,0-8-3.582-8-8l0,0
		C248,395.582,251.582,392,256,392z"/>
	<path style="fill:#763A02;" d="M400,64L400,64c4.418,0,8,3.582,8,8l0,0c0,4.418-3.582,8-8,8l0,0c-4.418,0-8-3.582-8-8l0,0
		C392,67.582,395.582,64,400,64z"/>
	<path style="fill:#763A02;" d="M64,240L64,240c4.418,0,8,3.582,8,8l0,0c0,4.418-3.582,8-8,8l0,0c-4.418,0-8-3.582-8-8l0,0
		C56,243.582,59.582,240,64,240z"/>
</g>
<g>
</g>
<g>
</g>
<g>
</g>
<g>
</g>
<g>
</g>
<g>
</g>
<g>
</g>
<g>
</g>
<g>
</g>
<g>
</g>
<g>
</g>
<g>
</g>
<g>
</g>
<g>
</g>
<g>
</g>
</svg>
