<?xml version="1.0" encoding="iso-8859-1"?>
<!-- Generator: Adobe Illustrator 19.0.0, SVG Export Plug-In . SVG Version: 6.00 Build 0)  -->
<svg version="1.1" id="Capa_1" xmlns="http://www.w3.org/2000/svg" xmlns:xlink="http://www.w3.org/1999/xlink" x="0px" y="0px"
	 viewBox="0 0 464 464" style="enable-background:new 0 0 464 464;" xml:space="preserve">
<path style="fill:#FDB62F;" d="M0,424h464L424,40H40L0,424z"/>
<path style="fill:#DE0418;" d="M28.336,152h407.328L429,88H35L28.336,152z"/>
<g>
	<path style="fill:#6CBBC7;" d="M6.664,360L0,424h464l-6.664-64H6.664z"/>
	<path style="fill:#6CBBC7;" d="M168,88l32,64l32-64H168z"/>
	<path style="fill:#6CBBC7;" d="M104,88l32,64l32-64H104z"/>
</g>
<g>
	<path style="fill:#FF421D;" d="M136,152h64l-32-64L136,152z"/>
	<path style="fill:#FF421D;" d="M28.336,152H72L34.568,92.112L28.336,152z"/>
	<path style="fill:#FF421D;" d="M72,152h64l-32-64L72,152z"/>
	<path style="fill:#FF421D;" d="M200,152h64l-32-64L200,152z"/>
</g>
<g>
	<path style="fill:#6CBBC7;" d="M35,88l-0.432,4.112L72,152l32-64H35z"/>
	<path style="fill:#6CBBC7;" d="M429,88h-69l32,64l37.432-59.888L429,88z"/>
</g>
<path style="fill:#FF421D;" d="M429.432,92.112L392,152h43.664L429.432,92.112z"/>
<path style="fill:#6CBBC7;" d="M232,88l32,64l32-64H232z"/>
<path style="fill:#FF421D;" d="M328,152h64l-32-64L328,152z"/>
<path style="fill:#6CBBC7;" d="M296,88l32,64l32-64H296z"/>
<path style="fill:#FF421D;" d="M264,152h64l-32-64L264,152z"/>
<path style="fill:#DE0418;" d="M208,232l24-48l24,48h48l-32,40l8,56l-48-24l-48,24l8-56l-32-40H208z"/>
<g>
</g>
<g>
</g>
<g>
</g>
<g>
</g>
<g>
</g>
<g>
</g>
<g>
</g>
<g>
</g>
<g>
</g>
<g>
</g>
<g>
</g>
<g>
</g>
<g>
</g>
<g>
</g>
<g>
</g>
</svg>
