<?xml version="1.0" encoding="iso-8859-1"?>
<!-- Generator: Adobe Illustrator 19.0.0, SVG Export Plug-In . SVG Version: 6.00 Build 0)  -->
<svg version="1.1" id="Capa_1" xmlns="http://www.w3.org/2000/svg" xmlns:xlink="http://www.w3.org/1999/xlink" x="0px" y="0px"
	 viewBox="0 0 472 472" style="enable-background:new 0 0 472 472;" xml:space="preserve">
<path style="fill:#FFA900;" d="M52,384V187.408c0.001-63.652,25.287-124.696,70.296-169.704L140,0l17.704,17.704
	C202.713,62.712,227.999,123.756,228,187.408V384H52z"/>
<g>
	<path style="fill:#DE0418;" d="M52,312L4,360v112h48V312z"/>
	<path style="fill:#DE0418;" d="M228,312l48,48v112h-48V312z"/>
</g>
<path style="fill:#6CBBC7;" d="M228,256h48l160,160h32v48h-48L260,304h-32V256z"/>
<g>
	<path style="fill:#DE0418;" d="M140,96L140,96c26.51,0,48,21.49,48,48l0,0c0,26.51-21.49,48-48,48l0,0c-26.51,0-48-21.49-48-48l0,0
		C92,117.49,113.49,96,140,96z"/>
	<path style="fill:#DE0418;" d="M188,352v24H92v-24H76v120h16v-16h96v16h16V352H188z M188,440H92v-16h96V440z M92,408v-16h96v16H92z
		"/>
</g>
<path style="fill:#FCE9CC;" d="M76,216h128v144H76V216z"/>
<g>
</g>
<g>
</g>
<g>
</g>
<g>
</g>
<g>
</g>
<g>
</g>
<g>
</g>
<g>
</g>
<g>
</g>
<g>
</g>
<g>
</g>
<g>
</g>
<g>
</g>
<g>
</g>
<g>
</g>
</svg>
