<?xml version="1.0" encoding="iso-8859-1"?>
<!-- Generator: Adobe Illustrator 19.0.0, SVG Export Plug-In . SVG Version: 6.00 Build 0)  -->
<svg version="1.1" id="Capa_1" xmlns="http://www.w3.org/2000/svg" xmlns:xlink="http://www.w3.org/1999/xlink" x="0px" y="0px"
	 viewBox="0 0 464 464" style="enable-background:new 0 0 464 464;" xml:space="preserve">
<g>
	<path style="fill:#763A02;" d="M160,256h-16V128c-0.035-30.913-25.087-55.965-56-56H32V56h56c39.746,0.044,71.956,32.254,72,72V256
		z"/>
	<path style="fill:#763A02;" d="M224,16h16v248h-16V16z"/>
	<path style="fill:#763A02;" d="M320,264h-16V136c0.044-39.746,32.254-71.956,72-72h64v16h-64c-30.913,0.035-55.965,25.087-56,56
		V264z"/>
</g>
<path style="fill:#FDB62F;" d="M96,24H56c-22.091,0-40,17.909-40,40h72c35.346,0,64,28.654,64,64v96l40-40v-64
	C192,66.981,149.019,24,96,24z"/>
<path style="fill:#FFA900;" d="M88,64H16c0,22.091,17.909,40,40,40h24c17.673,0,32,14.327,32,32v48l40,40v-96
	C152,92.654,123.346,64,88,64z"/>
<path style="fill:#FF8800;" d="M376,72h72c0-22.091-17.909-40-40-40h-40c-53.019,0-96,42.981-96,96v64l40,40v-96
	C312,100.654,340.654,72,376,72z"/>
<path style="fill:#E47700;" d="M376,72c-35.346,0-64,28.654-64,64v96l40-40v-48c0-17.673,14.327-32,32-32h24
	c22.091,0,40-17.909,40-40H376z"/>
<path style="fill:#FF421D;" d="M232,0v232l40-40V40C272,17.909,254.091,0,232,0z"/>
<path style="fill:#DE0418;" d="M192,40v152l40,40V0C209.909,0,192,17.909,192,40z"/>
<path style="fill:#6CBBC7;" d="M437.256,192c-28.977,0-56.766,11.511-77.256,32s-48.279,32-77.256,32H181.256
	c-28.977,0-56.766-11.511-77.256-32s-48.279-32-77.256-32H0v96.232C0,363.215,60.785,424,135.768,424
	c36.007,0.001,70.54,14.306,96,39.768L232,464l0.232-0.232c25.46-25.462,59.993-39.767,96-39.768
	C403.215,424,464,363.215,464,288.232l0,0V192H437.256z M156,376h-4c-53.019,0-96-42.981-96-96v-16
	c25.611,25.611,60.348,40,96.568,40H156c19.882,0,36,16.118,36,36S175.882,376,156,376z M408,280c0,53.019-42.981,96-96,96h-4
	c-19.882,0-36-16.118-36-36s16.118-36,36-36h3.432c36.22,0,70.957-14.389,96.568-40V280z"/>
<path style="fill:#89C9D2;" d="M437.256,192c-1.76,0-3.504,0.176-5.256,0.264v88c-0.004,18.978-4.005,37.743-11.744,55.072
	c-17.393,42.119-52.287,74.559-95.56,88.84c1.184,0,2.352-0.176,3.544-0.176C403.219,423.996,464,363.211,464,288.232V192H437.256z"
	/>
<g>
</g>
<g>
</g>
<g>
</g>
<g>
</g>
<g>
</g>
<g>
</g>
<g>
</g>
<g>
</g>
<g>
</g>
<g>
</g>
<g>
</g>
<g>
</g>
<g>
</g>
<g>
</g>
<g>
</g>
</svg>
