<?xml version="1.0" encoding="iso-8859-1"?>
<!-- Generator: Adobe Illustrator 19.0.0, SVG Export Plug-In . SVG Version: 6.00 Build 0)  -->
<svg version="1.1" id="Capa_1" xmlns="http://www.w3.org/2000/svg" xmlns:xlink="http://www.w3.org/1999/xlink" x="0px" y="0px"
	 viewBox="0 0 469.657 469.657" style="enable-background:new 0 0 469.657 469.657;" xml:space="preserve">
<path style="fill:#DE0418;" d="M0,146.828h336v32H0V146.828z"/>
<path style="fill:#763A02;" d="M48,178.828h240v288H48V178.828z"/>
<g>
	<path style="fill:#FDB62F;" d="M320,50.828h32v16h-32V50.828z"/>
	<path style="fill:#FDB62F;" d="M272,50.828h32v16h-32V50.828z"/>
	<path style="fill:#FDB62F;" d="M304,18.828h16v32h-16V18.828z"/>
	<path style="fill:#FDB62F;" d="M304,66.828h16v32h-16V66.828z"/>
	<path style="fill:#FDB62F;" d="M344,114.828l24-24l96,96v48L344,114.828z"/>
</g>
<g>
	<path style="fill:#6CBBC7;" d="M152,146.828V19.796c0-9.371-7.597-16.968-16.968-16.968l0,0c-4.501-0.001-8.817,1.786-12,4.968
		l-2.232,2.232C99.796,31.034,87.998,59.523,88,89.228v57.6H152z"/>
	<path style="fill:#6CBBC7;" d="M184,146.828V19.796c0-9.371,7.597-16.968,16.968-16.968l0,0c4.501-0.001,8.817,1.786,12,4.968
		l2.232,2.232c21.004,21.006,32.802,49.495,32.8,79.2v57.6H184z"/>
</g>
<path style="fill:#DE0418;" d="M48,242.828h240v64H48V242.828z"/>
<g>
	<path style="fill:#FCE9CC;" d="M112,74.828h16v72h-16V74.828z"/>
	<path style="fill:#FCE9CC;" d="M208,74.828h16v72h-16V74.828z"/>
</g>
<g>
	<path style="fill:#FDB62F;" d="M32,106.828h16v16H32V106.828z"/>
	<path style="fill:#FDB62F;" d="M48,90.828h16v16H48V90.828z"/>
	<path style="fill:#FDB62F;" d="M32,74.828h16v16H32V74.828z"/>
	<path style="fill:#FDB62F;" d="M16,90.828h16v16H16V90.828z"/>
</g>
<path style="fill:#FF421D;" d="M344.006,114.824l24.002-24.002l24.002,24.002l-24.002,24.002L344.006,114.824z"/>
<g>
	<path style="fill:#FCE9CC;" d="M394.345,85.196l55.997-55.997l11.314,11.314L405.658,96.51L394.345,85.196z"/>
	<path style="fill:#FCE9CC;" d="M418.345,109.181l24.002-24.002l11.314,11.314l-24.002,24.002L418.345,109.181z"/>
	<path style="fill:#FCE9CC;" d="M450.344,77.161l7.999-7.999l11.314,11.314l-7.999,7.999L450.344,77.161z"/>
</g>
<g>
</g>
<g>
</g>
<g>
</g>
<g>
</g>
<g>
</g>
<g>
</g>
<g>
</g>
<g>
</g>
<g>
</g>
<g>
</g>
<g>
</g>
<g>
</g>
<g>
</g>
<g>
</g>
<g>
</g>
</svg>
