<?xml version="1.0" encoding="iso-8859-1"?>
<!-- Generator: Adobe Illustrator 19.0.0, SVG Export Plug-In . SVG Version: 6.00 Build 0)  -->
<svg version="1.1" id="Capa_1" xmlns="http://www.w3.org/2000/svg" xmlns:xlink="http://www.w3.org/1999/xlink" x="0px" y="0px"
	 viewBox="0 0 472 472" style="enable-background:new 0 0 472 472;" xml:space="preserve">
<g>
	<path style="fill:#FF8800;" d="M112,396H56c-30.928,0-56-25.072-56-56s25.072-56,56-56h32c8.837,0,16-7.163,16-16s-7.163-16-16-16
		H56v-16h32c17.673,0,32,14.327,32,32s-14.327,32-32,32H56c-22.091,0-40,17.909-40,40s17.909,40,40,40h56V396z"/>
	<path style="fill:#FF8800;" d="M272,148c70.692,0,128,57.308,128,128v128H144V276C144,205.308,201.308,148,272,148z"/>
</g>
<path style="fill:#FFA900;" d="M208,452H88c-8.837,0-16-7.163-16-16s7.163-16,16-16h24v-32c0-26.51,21.49-48,48-48h224
	c26.51,0,48,21.49,48,48v32h24c8.837,0,16,7.163,16,16s-7.163,16-16,16H336v-48H208V452z"/>
<path style="fill:#FDB62F;" d="M192,236v200h-16c-8.837,0-16,7.163-16,16s7.163,16,16,16h64V340h64v128h64c8.837,0,16-7.163,16-16
	s-7.163-16-16-16h-16V236H192z"/>
<path style="fill:#E47700;" d="M200,4h144c30.928,0,56,25.072,56,56v94.864c0,21.217-8.429,41.565-23.432,56.568L311.6,276.4
	c-21.868,21.87-57.325,21.872-79.196,0.004c-0.001-0.001-0.003-0.003-0.004-0.004l-64.968-64.968
	C152.429,196.429,144,176.081,144,154.864V60C144,29.072,169.072,4,200,4L200,4z"/>
<g>
	<path style="fill:#FFA900;" d="M344,36L344,36c13.255,0,24,10.745,24,24l0,0c0,13.255-10.745,24-24,24l0,0
		c-13.255,0-24-10.745-24-24l0,0C320,46.745,330.745,36,344,36z"/>
	<path style="fill:#FFA900;" d="M200,36L200,36c13.255,0,24,10.745,24,24l0,0c0,13.255-10.745,24-24,24l0,0
		c-13.255,0-24-10.745-24-24l0,0C176,46.745,186.745,36,200,36z"/>
</g>
<path style="fill:#FDB62F;" d="M240,52h64c26.51,0,48,21.49,48,48v48c0,26.51-21.49,48-48,48h-64c-26.51,0-48-21.49-48-48v-48
	C192,73.49,213.49,52,240,52z"/>
<g>
	<path style="fill:#763A02;" d="M224,92L224,92c4.418,0,8,3.582,8,8l0,0c0,4.418-3.582,8-8,8l0,0c-4.418,0-8-3.582-8-8l0,0
		C216,95.582,219.582,92,224,92z"/>
	<path style="fill:#763A02;" d="M320,92L320,92c4.418,0,8,3.582,8,8l0,0c0,4.418-3.582,8-8,8l0,0c-4.418,0-8-3.582-8-8l0,0
		C312,95.582,315.582,92,320,92z"/>
</g>
<path style="fill:#FFA900;" d="M24,204H0v8c0.026,22.08,17.92,39.974,40,40h24v-8C63.974,221.92,46.08,204.026,24,204z"/>
<g>
	<path style="fill:#763A02;" d="M272,132h-32c-8.837,0-16,7.163-16,16s7.163,16,16,16h16c8.837,0,16-7.163,16-16V132z"/>
	<path style="fill:#763A02;" d="M272,132h32c8.837,0,16,7.163,16,16s-7.163,16-16,16h-16c-8.837,0-16-7.163-16-16V132z"/>
</g>
<path style="fill:#502601;" d="M272,100c8.837,0,16,7.163,16,16v16h-32v-16C256,107.163,263.163,100,272,100z"/>
<g>
	<path style="fill:#763A02;" d="M344,124h56v16h-56V124z"/>
	<path style="fill:#763A02;" d="M344,156h56v16h-56V156z"/>
	<path style="fill:#763A02;" d="M144,124h56v16h-56V124z"/>
	<path style="fill:#763A02;" d="M144,156h56v16h-56V156z"/>
</g>
<g>
</g>
<g>
</g>
<g>
</g>
<g>
</g>
<g>
</g>
<g>
</g>
<g>
</g>
<g>
</g>
<g>
</g>
<g>
</g>
<g>
</g>
<g>
</g>
<g>
</g>
<g>
</g>
<g>
</g>
</svg>
