<?xml version="1.0" encoding="iso-8859-1"?>
<!-- Generator: Adobe Illustrator 19.0.0, SVG Export Plug-In . SVG Version: 6.00 Build 0)  -->
<svg version="1.1" id="Capa_1" xmlns="http://www.w3.org/2000/svg" xmlns:xlink="http://www.w3.org/1999/xlink" x="0px" y="0px"
	 viewBox="0 0 464 464" style="enable-background:new 0 0 464 464;" xml:space="preserve">
<g>
	<path style="fill:#FCE9CC;" d="M192,464V344c0-8.837-7.163-16-16-16s-16,7.163-16,16v23.032c0,9.371-7.597,16.968-16.968,16.968
		c-4.501,0.001-8.817-1.786-12-4.968l-38.056-38.056c-3.182-3.183-4.969-7.499-4.968-12V256c0-8.837-7.163-16-16-16s-16,7.163-16,16
		v65.6c0.001,9.57,1.433,19.086,4.248,28.232l23.512,76.408c2.803,9.124,4.229,18.615,4.232,28.16v9.6H192z"/>
	<path style="fill:#FCE9CC;" d="M272,464V344c0-8.837,7.163-16,16-16s16,7.163,16,16v23.032c0,9.371,7.597,16.968,16.968,16.968
		c4.501,0.001,8.817-1.786,12-4.968l38.056-38.056c3.182-3.183,4.969-7.499,4.968-12V256c0-8.837,7.163-16,16-16s16,7.163,16,16v80
		L376,440v24H272z"/>
</g>
<g>
	<path style="fill:#6CBBC7;" d="M216,136v40c0,8.837,7.163,16,16,16c8.837,0,16-7.163,16-16v-40
		c0-10.244,4.069-20.068,11.312-27.312l1.376-1.376C267.931,100.068,272,90.244,272,80V40c0-10.244-4.069-20.068-11.312-27.312
		l-1.376-1.376C252.068,4.069,242.244,0,232,0c-10.244,0-20.068,4.069-27.312,11.312l-1.376,1.376C196.069,19.932,192,29.756,192,40
		v40c0,10.244,4.069,20.068,11.312,27.312l1.376,1.376C211.931,115.932,216,125.756,216,136z"/>
	<path style="fill:#6CBBC7;" d="M164,212c6.627-6.625,6.629-17.369,0.004-23.996c-0.001-0.001-0.002-0.002-0.004-0.004l-32-32
		c-7.683-7.683-12-18.103-12-28.968v-6.056c0.002-10.868-4.315-21.291-12-28.976L76,60c-7.683-7.683-18.103-12-28.968-12h-6.064
		C30.103,48,19.683,52.317,12,60C4.317,67.683,0,78.103,0,88.968v6.056C-0.002,105.892,4.315,116.315,12,124l32,32
		c7.683,7.683,18.103,12,28.968,12h6.056c10.868-0.002,21.291,4.315,28.976,12l32,32c6.625,6.627,17.369,6.629,23.996,0.004
		C163.998,212.002,163.999,212.001,164,212z"/>
	<path style="fill:#6CBBC7;" d="M300,212c-6.627-6.625-6.629-17.369-0.004-23.996c0.001-0.001,0.002-0.002,0.004-0.004l32-32
		c7.683-7.683,12-18.103,12-28.968v-6.056c-0.002-10.868,4.315-21.291,12-28.976l32-32c7.683-7.683,18.103-12,28.968-12h6.056
		c10.868-0.002,21.291,4.315,28.976,12c7.683,7.683,12,18.103,12,28.968v6.056c0.002,10.868-4.315,21.291-12,28.976l-32,32
		c-7.683,7.683-18.103,12-28.968,12h-6.056c-10.868-0.002-21.291,4.315-28.976,12l-32,32c-6.625,6.627-17.369,6.629-23.996,0.004
		C300.002,212.002,300.001,212.001,300,212z"/>
</g>
<g>
	<path style="fill:#FBBF00;" d="M16.001,128l64.002-64.002L104.005,88l-64.002,64.002L16.001,128z"/>
	<path style="fill:#FBBF00;" d="M192,48h80v32h-80V48z"/>
	<path style="fill:#FBBF00;" d="M359.982,87.997l24.002-24.002l64.002,64.002l-24.002,24.002L359.982,87.997z"/>
</g>
<g>
</g>
<g>
</g>
<g>
</g>
<g>
</g>
<g>
</g>
<g>
</g>
<g>
</g>
<g>
</g>
<g>
</g>
<g>
</g>
<g>
</g>
<g>
</g>
<g>
</g>
<g>
</g>
<g>
</g>
</svg>
