<?xml version="1.0" encoding="iso-8859-1"?>
<!-- Generator: Adobe Illustrator 19.0.0, SVG Export Plug-In . SVG Version: 6.00 Build 0)  -->
<svg version="1.1" id="Capa_1" xmlns="http://www.w3.org/2000/svg" xmlns:xlink="http://www.w3.org/1999/xlink" x="0px" y="0px"
	 viewBox="0 0 480 480" style="enable-background:new 0 0 480 480;" xml:space="preserve">
<path style="fill:#FF6536;" d="M72,348h336v64H72V348z"/>
<path style="fill:#FFA900;" d="M312,348V216c0-33.137,26.863-60,60-60s60,26.863,60,60l0,0v12c-22.091,0-40,17.909-40,40v80H312z"/>
<path style="fill:#6CBBC7;" d="M168,348V216c0-33.137-26.863-60-60-60l0,0c-33.137,0-60,26.863-60,60l0,0v12
	c22.091,0,40,17.909,40,40v80H168z"/>
<path style="fill:#FF421D;" d="M360,348H120l120-216L360,348z"/>
<g>
	<circle style="fill:#FCE9CC;" cx="240" cy="100" r="32"/>
	<circle style="fill:#FCE9CC;" cx="32" cy="252" r="32"/>
	<circle style="fill:#FCE9CC;" cx="448" cy="252" r="32"/>
</g>
<path style="fill:#FF6536;" d="M112,348l64,64l64-64H112z"/>
<path style="fill:#FFA900;" d="M72,388v24h104l-64-64L72,388z"/>
<path style="fill:#FF6536;" d="M72,348v40l40-40H72z"/>
<path style="fill:#FFA900;" d="M176,412h128l-64-64L176,412z"/>
<g>
	<path style="fill:#FF6536;" d="M240,348l64,64l64-64H240z"/>
	<path style="fill:#FF6536;" d="M368,348l40,40v-40H368z"/>
</g>
<path style="fill:#FFA900;" d="M304,412h104v-24l-40-40L304,412z"/>
<g>
</g>
<g>
</g>
<g>
</g>
<g>
</g>
<g>
</g>
<g>
</g>
<g>
</g>
<g>
</g>
<g>
</g>
<g>
</g>
<g>
</g>
<g>
</g>
<g>
</g>
<g>
</g>
<g>
</g>
</svg>
