<?xml version="1.0" encoding="iso-8859-1"?>
<!-- Generator: Adobe Illustrator 19.0.0, SVG Export Plug-In . SVG Version: 6.00 Build 0)  -->
<svg version="1.1" id="Capa_1" xmlns="http://www.w3.org/2000/svg" xmlns:xlink="http://www.w3.org/1999/xlink" x="0px" y="0px"
	 viewBox="0 0 464 464" style="enable-background:new 0 0 464 464;" xml:space="preserve">
<path style="fill:#FFA900;" d="M232,0L120,112h224L232,0z"/>
<path style="fill:#763A02;" d="M144,112h176v352H144V112z"/>
<path style="fill:#FF8800;" d="M0,232l80-80l80,80H0z"/>
<path style="fill:#592C02;" d="M16,232h128v232H16V232z"/>
<path style="fill:#FF8800;" d="M304,232l80-80l80,80H304z"/>
<path style="fill:#592C02;" d="M320,232h128v232H320V232z"/>
<path style="fill:#FCE9CC;" d="M192,232h80v-48c0-22.091-17.909-40-40-40s-40,17.909-40,40V232z"/>
<path style="fill:#FFA900;" d="M176,464h56V336c-30.928,0-56,25.072-56,56V464z"/>
<path style="fill:#FF8800;" d="M232,464h56v-72c0-30.928-25.072-56-56-56V464z"/>
<path style="fill:#FCE9CC;" d="M48,336h64v-40c0-17.673-14.327-32-32-32s-32,14.327-32,32V336z"/>
<g>
	<path style="fill:#6CBBC7;" d="M40,56v64c0,44.183,35.817,80,80,80h112c-44.183,0-80-35.817-80-80V56c0-30.928-25.072-56-56-56
		S40,25.072,40,56z"/>
	<path style="fill:#6CBBC7;" d="M416,312v16c0,35.346-28.654,64-64,64h-96c35.346,0,64-28.654,64-64v-16c0-26.51,21.49-48,48-48
		S416,285.49,416,312z"/>
</g>
<g>
	<path style="fill:#36717A;" d="M72,64L72,64c4.418,0,8,3.582,8,8l0,0c0,4.418-3.582,8-8,8l0,0c-4.418,0-8-3.582-8-8l0,0
		C64,67.582,67.582,64,72,64z"/>
	<path style="fill:#36717A;" d="M120,64L120,64c4.418,0,8,3.582,8,8l0,0c0,4.418-3.582,8-8,8l0,0c-4.418,0-8-3.582-8-8l0,0
		C112,67.582,115.582,64,120,64z"/>
	<path style="fill:#36717A;" d="M352,304L352,304c4.418,0,8,3.582,8,8l0,0c0,4.418-3.582,8-8,8l0,0c-4.418,0-8-3.582-8-8l0,0
		C344,307.582,347.582,304,352,304z"/>
	<path style="fill:#36717A;" d="M384,304L384,304c4.418,0,8,3.582,8,8l0,0c0,4.418-3.582,8-8,8l0,0c-4.418,0-8-3.582-8-8l0,0
		C376,307.582,379.582,304,384,304z"/>
</g>
<g>
</g>
<g>
</g>
<g>
</g>
<g>
</g>
<g>
</g>
<g>
</g>
<g>
</g>
<g>
</g>
<g>
</g>
<g>
</g>
<g>
</g>
<g>
</g>
<g>
</g>
<g>
</g>
<g>
</g>
</svg>
