<?xml version="1.0" encoding="iso-8859-1"?>
<!-- Generator: Adobe Illustrator 19.0.0, SVG Export Plug-In . SVG Version: 6.00 Build 0)  -->
<svg version="1.1" id="Capa_1" xmlns="http://www.w3.org/2000/svg" xmlns:xlink="http://www.w3.org/1999/xlink" x="0px" y="0px"
	 viewBox="0 0 472 472" style="enable-background:new 0 0 472 472;" xml:space="preserve">
<g>
	<path style="fill:#6CBBC7;" d="M148,248h-16v-48c0-13.255-10.745-24-24-24s-24,10.745-24,24v8H68v-8c0-22.091,17.909-40,40-40
		s40,17.909,40,40V248z"/>
	<path style="fill:#6CBBC7;" d="M340,248h-16v-48c0-22.091,17.909-40,40-40s40,17.909,40,40v8h-16v-8c0-13.255-10.745-24-24-24
		s-24,10.745-24,24V248z"/>
	<path style="fill:#6CBBC7;" d="M372,344h-16v-48c0-22.091,17.909-40,40-40s40,17.909,40,40v8h-16v-8c0-13.255-10.745-24-24-24
		s-24,10.745-24,24V344z"/>
	<path style="fill:#6CBBC7;" d="M116,344h-16v-48c0-13.255-10.745-24-24-24s-24,10.745-24,24v8H36v-8c0-22.091,17.909-40,40-40
		s40,17.909,40,40V344z"/>
	<path style="fill:#6CBBC7;" d="M228,144h-16V64c0-26.51-21.49-48-48-48s-48,21.49-48,48v16h-16V64c0-35.346,28.654-64,64-64
		s64,28.654,64,64V144z"/>
	<path style="fill:#6CBBC7;" d="M260,144h-16V64c0-35.346,28.654-64,64-64s64,28.654,64,64v16h-16V64c0-26.51-21.49-48-48-48
		s-48,21.49-48,48V144z"/>
	<path style="fill:#6CBBC7;" d="M196,144h-16V64c0-8.837-7.163-16-16-16s-16,7.163-16,16v16h-16V64c0-17.673,14.327-32,32-32
		s32,14.327,32,32V144z"/>
	<path style="fill:#6CBBC7;" d="M292,144h-16V64c0-17.673,14.327-32,32-32s32,14.327,32,32v16h-16V64c0-8.837-7.163-16-16-16
		s-16,7.163-16,16V144z"/>
</g>
<path style="fill:#E47700;" d="M4,424h464c0,26.51-21.49,48-48,48l0,0H52C25.49,472,4,450.51,4,424L4,424z"/>
<path style="fill:#763A02;" d="M196,376h80v48h-80V376z"/>
<path style="fill:#FF8800;" d="M140,376h192c26.51,0,48-21.49,48-48H92C92,354.51,113.49,376,140,376z"/>
<path style="fill:#FFA900;" d="M124,232c0,26.51,21.49,48,48,48h128c26.51,0,48-21.49,48-48H124z"/>
<g>
	<path style="fill:#763A02;" d="M212,280h48v48h-48V280z"/>
	<path style="fill:#763A02;" d="M220,184h32v48h-32V184z"/>
</g>
<path style="fill:#FDB62F;" d="M156,136h160c0,26.51-21.49,48-48,48h-64C177.49,184,156,162.51,156,136z"/>
<g>
	<path style="fill:#36717A;" d="M100,96h16v16h-16V96z"/>
	<path style="fill:#36717A;" d="M356,96h16v16h-16V96z"/>
	<path style="fill:#36717A;" d="M100,128h16v16h-16V128z"/>
	<path style="fill:#36717A;" d="M356,128h16v16h-16V128z"/>
	<path style="fill:#36717A;" d="M132,96h16v16h-16V96z"/>
	<path style="fill:#36717A;" d="M324,96h16v16h-16V96z"/>
	<path style="fill:#36717A;" d="M68,224h16v16H68V224z"/>
	<path style="fill:#36717A;" d="M388,224h16v16h-16V224z"/>
	<path style="fill:#36717A;" d="M420,320h16v16h-16V320z"/>
	<path style="fill:#36717A;" d="M420,352h16v16h-16V352z"/>
	<path style="fill:#36717A;" d="M36,320h16v16H36V320z"/>
	<path style="fill:#36717A;" d="M36,352h16v16H36V352z"/>
	<path style="fill:#36717A;" d="M36,384h16v16H36V384z"/>
	<path style="fill:#36717A;" d="M420,384h16v16h-16V384z"/>
</g>
<g>
</g>
<g>
</g>
<g>
</g>
<g>
</g>
<g>
</g>
<g>
</g>
<g>
</g>
<g>
</g>
<g>
</g>
<g>
</g>
<g>
</g>
<g>
</g>
<g>
</g>
<g>
</g>
<g>
</g>
</svg>
