<?xml version="1.0" encoding="iso-8859-1"?>
<!-- Generator: Adobe Illustrator 19.0.0, SVG Export Plug-In . SVG Version: 6.00 Build 0)  -->
<svg version="1.1" id="Capa_1" xmlns="http://www.w3.org/2000/svg" xmlns:xlink="http://www.w3.org/1999/xlink" x="0px" y="0px"
	 viewBox="0 0 472 472" style="enable-background:new 0 0 472 472;" xml:space="preserve">
<g>
	<path style="fill:#763A02;" d="M448,76h16v144h-16V76z"/>
	<path style="fill:#763A02;" d="M56,284H24c-2.122,0-4.156-0.844-5.656-2.344l-16-16C0.844,264.156,0,262.122,0,260v-40
		c0.001-4.418,3.583-7.999,8.002-7.998c2.121,0,4.154,0.843,5.654,2.342L35.312,236H56c4.418,0,8,3.582,8,8v32
		C64,280.418,60.418,284,56,284z M27.312,268H56v-16H32c-2.122,0-4.156-0.844-5.656-2.344L16,239.312v17.376L27.312,268z"/>
</g>
<path style="fill:#36717A;" d="M392,140h16v40h-16V140z"/>
<path style="fill:#B3B3B3;" d="M296,124h-64V76h64V124z M248,116h32V84h-32V116z"/>
<path style="fill:#FF421D;" d="M56,212h416v152H56V212z"/>
<path style="fill:#763A02;" d="M72,84h120v128H72V84z"/>
<path style="fill:#FF421D;" d="M56,52h416v32H56V52z"/>
<path style="fill:#DE0418;" d="M56,52L88,4h352l32,48H56z"/>
<g>
	<path style="fill:#FFA900;" d="M96,108h72v16H96V108z"/>
	<path style="fill:#FFA900;" d="M96,140h40v16H96V140z"/>
	<path style="fill:#FFA900;" d="M96,172h40v16H96V172z"/>
	<path style="fill:#FFA900;" d="M152,140h16v16h-16V140z"/>
	<path style="fill:#FFA900;" d="M152,172h16v16h-16V172z"/>
	<path style="fill:#FFA900;" d="M224,116h80v32h-80V116z"/>
</g>
<g>
	<path style="fill:#6CBBC7;" d="M336,180h88v32h-88V180z"/>
	<path style="fill:#6CBBC7;" d="M384,116h32v32h-32V116z"/>
</g>
<path style="fill:#FDB62F;" d="M192,260c-57.438,0-104,46.562-104,104s46.562,104,104,104s104-46.562,104-104S249.438,260,192,260z
	 M192,436c-39.764,0-72-32.236-72-72s32.236-72,72-72s72,32.236,72,72S231.764,436,192,436L192,436z"/>
<path style="fill:#763A02;" d="M200,284.408V284h-16v0.408c-43.961,4.418-76.017,43.638-71.599,87.599
	c4.418,43.961,43.638,76.017,87.599,71.599s76.017-43.638,71.599-87.599C267.794,318.152,237.855,288.213,200,284.408z M222.864,356
	c-0.747-2.863-1.891-5.607-3.4-8.152l23.032-23.048c7.051,9.043,11.526,19.823,12.952,31.2H222.864z M161.136,372
	c0.747,2.863,1.891,5.607,3.4,8.152L141.504,403.2c-7.051-9.043-11.526-19.823-12.952-31.2H161.136z M192,348
	c8.837,0,16,7.163,16,16s-7.163,16-16,16s-16-7.163-16-16S183.163,348,192,348z M175.848,391.464c2.545,1.509,5.289,2.653,8.152,3.4
	v32.584c-11.377-1.426-22.158-5.901-31.2-12.952L175.848,391.464z M200,394.864c2.863-0.747,5.607-1.891,8.152-3.4l23.048,23.032
	c-9.042,7.051-19.823,11.526-31.2,12.952L200,394.864z M231.2,313.504l-23.024,23.024c-2.553-1.508-5.305-2.65-8.176-3.392v-32.584
	C211.377,301.978,222.158,306.453,231.2,313.504L231.2,313.504z M184,333.136c-2.863,0.747-5.607,1.891-8.152,3.4L152.8,313.504
	c9.042-7.051,19.823-11.526,31.2-12.952L184,333.136z M141.504,324.8l23.024,23.024c-1.508,2.553-2.65,5.305-3.392,8.176h-32.584
	C129.978,344.623,134.453,333.842,141.504,324.8L141.504,324.8z M242.488,403.2l-23.024-23.024c1.511-2.553,2.655-5.305,3.4-8.176
	h32.584c-1.426,11.377-5.901,22.158-12.952,31.2L242.488,403.2z"/>
<path style="fill:#FDB62F;" d="M408,404L408,404c17.673,0,32,14.327,32,32l0,0c0,17.673-14.327,32-32,32l0,0
	c-17.673,0-32-14.327-32-32l0,0C376,418.327,390.327,404,408,404z"/>
<path style="fill:#763A02;" d="M400,364h16v72h-16V364z"/>
<g>
</g>
<g>
</g>
<g>
</g>
<g>
</g>
<g>
</g>
<g>
</g>
<g>
</g>
<g>
</g>
<g>
</g>
<g>
</g>
<g>
</g>
<g>
</g>
<g>
</g>
<g>
</g>
<g>
</g>
</svg>
