<?xml version="1.0" encoding="iso-8859-1"?>
<!-- Generator: Adobe Illustrator 19.0.0, SVG Export Plug-In . SVG Version: 6.00 Build 0)  -->
<svg version="1.1" id="Capa_1" xmlns="http://www.w3.org/2000/svg" xmlns:xlink="http://www.w3.org/1999/xlink" x="0px" y="0px"
	 viewBox="0 0 480 480" style="enable-background:new 0 0 480 480;" xml:space="preserve">
<path style="fill:#763A02;" d="M336,280h16v200h-16V280z"/>
<g>
	<path style="fill:#592C02;" d="M440,368c-30.913-0.035-55.965-25.087-56-56v-24h16v24c0.026,22.08,17.92,39.974,40,40V368z"/>
	<path style="fill:#592C02;" d="M253.656,445.656l-11.312-11.312c14.523-14.56,14.523-38.128,0-52.688l-16-16l11.312-11.312l16,16
		C274.421,391.154,274.421,424.846,253.656,445.656z"/>
</g>
<path style="fill:#6CBBC7;" d="M40,240v-96h96L40,240z"/>
<path style="fill:#DE0418;" d="M48.005,232.004l80-80l159.999,159.999l-80,80L48.005,232.004z"/>
<path style="fill:#763A02;" d="M250.491,317.78l11.035-11.586l168,160.001l-11.035,11.586L250.491,317.78z"/>
<g>
	<path style="fill:#FFA900;" d="M48,232l40-40v80L48,232z"/>
	<path style="fill:#FFA900;" d="M120,160l8-8l24,24v160l-32-32V160z"/>
	<path style="fill:#FFA900;" d="M184,208v160l24,24l8-8V240L184,208z"/>
	<path style="fill:#FFA900;" d="M248,272v80l40-40L248,272z"/>
	<path style="fill:#FFA900;" d="M376,8l-64,64h128L376,8z"/>
</g>
<path style="fill:#FF421D;" d="M320,72h112v232H320V72z"/>
<g>
	<path style="fill:#6CBBC7;" d="M320,72v48l48-48H320z"/>
	<path style="fill:#6CBBC7;" d="M320,168l96-96h16v32L320,216V168z"/>
	<path style="fill:#6CBBC7;" d="M432,200v-48L320,264v40h8L432,200z"/>
	<path style="fill:#6CBBC7;" d="M432,248v56h-56L432,248z"/>
</g>
<path style="fill:#FF421D;" d="M200,0h16v16h-16V0z"/>
<g>
	<path style="fill:#FFA900;" d="M200,32h16v32h-16V32z"/>
	<path style="fill:#FFA900;" d="M216,64h32v16h-32V64z"/>
</g>
<path style="fill:#FF421D;" d="M264,64h16v16h-16V64z"/>
<path style="fill:#FFA900;" d="M200,80h16v32h-16V80z"/>
<path style="fill:#FF421D;" d="M200,128h16v16h-16V128z"/>
<path style="fill:#FFA900;" d="M168,64h32v16h-32V64z"/>
<path style="fill:#FF421D;" d="M136,64h16v16h-16V64z"/>
<g>
	<path style="fill:#6CBBC7;" d="M154.347,29.66l11.314-11.314l24.002,24.002l-11.314,11.314L154.347,29.66z"/>
	<path style="fill:#6CBBC7;" d="M226.347,42.342l24.002-24.002l11.314,11.314l-24.002,24.002L226.347,42.342z"/>
	<path style="fill:#6CBBC7;" d="M154.347,114.366l24.002-24.002l11.314,11.314l-24.002,24.002L154.347,114.366z"/>
	<path style="fill:#6CBBC7;" d="M226.347,101.66l11.314-11.314l24.002,24.002l-11.314,11.314L226.347,101.66z"/>
</g>
<g>
</g>
<g>
</g>
<g>
</g>
<g>
</g>
<g>
</g>
<g>
</g>
<g>
</g>
<g>
</g>
<g>
</g>
<g>
</g>
<g>
</g>
<g>
</g>
<g>
</g>
<g>
</g>
<g>
</g>
</svg>
