<?xml version="1.0" encoding="iso-8859-1"?>
<!-- Generator: Adobe Illustrator 19.0.0, SVG Export Plug-In . SVG Version: 6.00 Build 0)  -->
<svg version="1.1" id="Capa_1" xmlns="http://www.w3.org/2000/svg" xmlns:xlink="http://www.w3.org/1999/xlink" x="0px" y="0px"
	 viewBox="0 0 480 480" style="enable-background:new 0 0 480 480;" xml:space="preserve">
<g>
	<path style="fill:#808080;" d="M364.232,448H115.768L240,164L364.232,448z M140.232,432h199.536L240,204L140.232,432z"/>
	<path style="fill:#808080;" d="M104,432h272v48H104V432z"/>
</g>
<path style="fill:#6CBBC7;" d="M240,368c-101.62,0-184-82.38-184-184S138.38,0,240,0s184,82.38,184,184
	C423.885,285.573,341.573,367.885,240,368z M240,16C147.216,16,72,91.216,72,184s75.216,168,168,168s168-75.216,168-168
	C407.894,91.26,332.74,16.106,240,16z"/>
<g>
	<path style="fill:#B3B3B3;" d="M56,176h368v16H56V176z"/>
	<path style="fill:#B3B3B3;" d="M232,0h16v368h-16V0z"/>
	<g transform="matrix(0.70711 -0.70711 0.70711 0.70711 -8.305 29.95)">
		<path style="fill:#B3B3B3;" d="M58.648,103.493h16v362.04h-16V103.493z"/>
		<path style="fill:#B3B3B3;" d="M-114.368,276.509h362.04v16h-362.04L-114.368,276.509z"/>
	</g>
</g>
<path style="fill:#6CBBC7;" d="M240,288c-57.438,0-104-46.562-104-104S182.562,80,240,80s104,46.562,104,104
	C343.934,241.41,297.41,287.934,240,288z M240,96c-48.601,0-88,39.399-88,88s39.399,88,88,88s88-39.399,88-88
	C327.947,135.421,288.579,96.053,240,96z"/>
<path style="fill:#FCE9CC;" d="M240,360c-17.673,0-32,14.327-32,32h64C272,374.327,257.673,360,240,360z"/>
<path style="fill:#FDB62F;" d="M240,424c17.673,0,32-14.327,32-32h-64C208,409.673,222.327,424,240,424z"/>
<path style="fill:#FF421D;" d="M104,376c17.673,0,32-14.327,32-32H72C72,361.673,86.327,376,104,376z"/>
<g>
	<path style="fill:#FCE9CC;" d="M104,312c-17.673,0-32,14.327-32,32h64C136,326.327,121.673,312,104,312z"/>
	<path style="fill:#FCE9CC;" d="M376,312c-17.673,0-32,14.327-32,32h64C408,326.327,393.673,312,376,312z"/>
</g>
<path style="fill:#FF421D;" d="M376,376c17.673,0,32-14.327,32-32h-64C344,361.673,358.327,376,376,376z"/>
<path style="fill:#FCE9CC;" d="M240,8c-17.673,0-32,14.327-32,32h64C272,22.327,257.673,8,240,8z"/>
<path style="fill:#FDB62F;" d="M240,72c17.673,0,32-14.327,32-32h-64C208,57.673,222.327,72,240,72z"/>
<path style="fill:#FCE9CC;" d="M96,64c-17.673,0-32,14.327-32,32h64C128,78.327,113.673,64,96,64z"/>
<g>
	<path style="fill:#FF421D;" d="M96,128c17.673,0,32-14.327,32-32H64C64,113.673,78.327,128,96,128z"/>
	<path style="fill:#FF421D;" d="M384,128c17.673,0,32-14.327,32-32h-64C352,113.673,366.327,128,384,128z"/>
</g>
<path style="fill:#FCE9CC;" d="M384,64c-17.673,0-32,14.327-32,32h64C416,78.327,401.673,64,384,64z"/>
<path style="fill:#FDB62F;" d="M416,248c17.673,0,32-14.327,32-32h-64C384,233.673,398.327,248,416,248z"/>
<g>
	<path style="fill:#FCE9CC;" d="M416,184c-17.673,0-32,14.327-32,32h64C448,198.327,433.673,184,416,184z"/>
	<path style="fill:#FCE9CC;" d="M64,184c-17.673,0-32,14.327-32,32h64C96,198.327,81.673,184,64,184z"/>
</g>
<path style="fill:#FDB62F;" d="M96,216H32c0,17.673,14.327,32,32,32S96,233.673,96,216z"/>
<g>
</g>
<g>
</g>
<g>
</g>
<g>
</g>
<g>
</g>
<g>
</g>
<g>
</g>
<g>
</g>
<g>
</g>
<g>
</g>
<g>
</g>
<g>
</g>
<g>
</g>
<g>
</g>
<g>
</g>
</svg>
