<?xml version="1.0" encoding="iso-8859-1"?>
<!-- Generator: Adobe Illustrator 19.0.0, SVG Export Plug-In . SVG Version: 6.00 Build 0)  -->
<svg version="1.1" id="Capa_1" xmlns="http://www.w3.org/2000/svg" xmlns:xlink="http://www.w3.org/1999/xlink" x="0px" y="0px"
	 viewBox="0 0 464 464" style="enable-background:new 0 0 464 464;" xml:space="preserve">
<path style="fill:#808080;" d="M392,240c-13.255,0-24-10.745-24-24V96h16v120c0,4.418,3.582,8,8,8s8-3.582,8-8v-16h16v16
	C416,229.255,405.255,240,392,240z"/>
<path style="fill:#B3B3B3;" d="M288,0h-76C147.935,0,96,51.935,96,116v148c0,4.418-3.582,8-8,8s-8-3.582-8-8s-3.582-8-8-8H56
	c-4.418,0-8,3.582-8,8c0,22.091,17.909,40,40,40s40-17.909,40-40v-56.552c0.013-17.368,14.103-31.438,31.471-31.425
	c14.414,0.011,26.975,9.819,30.481,23.801L208,272v56h48V224c0.104,0.104,0.176,0.232,0.288,0.336L320,288l32-32l-20.688-20.688
	c-6.246-6.248-6.246-16.376,0-22.624l24.568-24.568c18.006-18.005,28.121-42.425,28.12-67.888V96C384,42.981,341.019,0,288,0L288,0z
	"/>
<g>
	<path style="fill:#808080;" d="M128,136L128,136c4.418,0,8,3.582,8,8l0,0c0,4.418-3.582,8-8,8l0,0c-4.418,0-8-3.582-8-8l0,0
		C120,139.582,123.582,136,128,136z"/>
	<path style="fill:#808080;" d="M250.656,229.968c-12.187-12.166-15.208-30.771-7.496-46.168l29.68-59.368l14.312,7.16
		l-29.68,59.368c-4.62,9.24-2.809,20.399,4.496,27.704L250.656,229.968z"/>
</g>
<path style="fill:#FF8800;" d="M232,320L232,320c39.764,0,72,32.236,72,72l0,0c0,39.764-32.236,72-72,72l0,0
	c-39.764,0-72-32.236-72-72l0,0C160,352.236,192.236,320,232,320z"/>
<path style="fill:#808080;" d="M168,48L168,48c13.255,0,24,10.745,24,24v32c0,13.255-10.745,24-24,24l0,0c-13.255,0-24-10.745-24-24
	V72C144,58.745,154.745,48,168,48z"/>
<path style="fill:#FBBF00;" d="M232,320l-4.12,4.12c-37.491,37.489-37.493,98.273-0.004,135.764
	c0.001,0.001,0.002,0.002,0.004,0.004L232,464l4.12-4.12c37.491-37.489,37.493-98.273,0.004-135.764
	c-0.001-0.001-0.002-0.002-0.004-0.004L232,320z"/>
<g>
</g>
<g>
</g>
<g>
</g>
<g>
</g>
<g>
</g>
<g>
</g>
<g>
</g>
<g>
</g>
<g>
</g>
<g>
</g>
<g>
</g>
<g>
</g>
<g>
</g>
<g>
</g>
<g>
</g>
</svg>
