<?xml version="1.0" encoding="iso-8859-1"?>
<!-- Generator: Adobe Illustrator 19.0.0, SVG Export Plug-In . SVG Version: 6.00 Build 0)  -->
<svg version="1.1" id="Capa_1" xmlns="http://www.w3.org/2000/svg" xmlns:xlink="http://www.w3.org/1999/xlink" x="0px" y="0px"
	 viewBox="0 0 464 464" style="enable-background:new 0 0 464 464;" xml:space="preserve">
<path style="fill:#FFA900;" d="M208,328h48v136h-48V328z"/>
<path style="fill:#6CBBC7;" d="M400,136.968V240c0,53.019-42.981,96-96,96H148.856C101.991,336,64,298.009,64,251.144c0,0,0,0,0,0
	c0.001-22.505,8.942-44.087,24.856-60l6.296-6.296c15.909-15.912,24.847-37.491,24.848-59.992V44c0-24.301,19.699-44,44-44
	s44,19.699,44,44v84c0,17.673,14.327,32,32,32h82.744c8.486-0.002,16.624-3.374,22.624-9.376l25.656-25.656
	c3.183-3.182,7.499-4.969,12-4.968c9.371-0.004,16.972,7.589,16.976,16.96C400,136.963,400,136.965,400,136.968L400,136.968z"/>
<path style="fill:#FFA900;" d="M120,48H80c-8.837,0-16,7.163-16,16s7.163,16,16,16h40V48z"/>
<circle style="fill:#DE0418;" cx="232" cy="248" r="8"/>
<path style="fill:#FF6536;" d="M296,240h-16.72c-3.429-20.104-19.176-35.851-39.28-39.28V184h-16v16.72
	c-20.104,3.429-35.851,19.176-39.28,39.28H168v16h16.72c3.429,20.104,19.176,35.851,39.28,39.28V312h16v-16.72
	c20.104-3.429,35.851-19.176,39.28-39.28H296V240z M240,278.864V272h-16v6.864c-11.201-2.916-19.948-11.663-22.864-22.864H208v-16
	h-6.864c2.916-11.201,11.663-19.948,22.864-22.864V224h16v-6.864c11.201,2.916,19.948,11.663,22.864,22.864H256v16h6.864
	C259.948,267.201,251.201,275.948,240,278.864z"/>
<path style="fill:#89C9D2;" d="M383.032,120c-4.501-0.001-8.817,1.786-12,4.968l-11.12,11.12c0,0.296,0.088,0.576,0.088,0.88V240
	c0,53.019-42.981,96-96,96h40c53.019,0,96-42.981,96-96V136.968C400,127.597,392.403,120,383.032,120L383.032,120z"/>
<path style="fill:#763A02;" d="M160,48L160,48c8.837,0,16,7.163,16,16l0,0c0,8.837-7.163,16-16,16l0,0c-8.837,0-16-7.163-16-16l0,0
	C144,55.163,151.163,48,160,48z"/>
<g>
</g>
<g>
</g>
<g>
</g>
<g>
</g>
<g>
</g>
<g>
</g>
<g>
</g>
<g>
</g>
<g>
</g>
<g>
</g>
<g>
</g>
<g>
</g>
<g>
</g>
<g>
</g>
<g>
</g>
</svg>
