<?xml version="1.0" encoding="iso-8859-1"?>
<!-- Generator: Adobe Illustrator 19.0.0, SVG Export Plug-In . SVG Version: 6.00 Build 0)  -->
<svg version="1.1" id="Capa_1" xmlns="http://www.w3.org/2000/svg" xmlns:xlink="http://www.w3.org/1999/xlink" x="0px" y="0px"
	 viewBox="0 0 464 464" style="enable-background:new 0 0 464 464;" xml:space="preserve">
<path style="fill:#B3B3B3;" d="M338.346,82.306l32.001-32.001l11.314,11.314L349.66,93.619L338.346,82.306z"/>
<path style="fill:#FFA900;" d="M136,424h128v16H136V424z"/>
<g>
	<path style="fill:#592C02;" d="M144,376v72c0,8.837-7.163,16-16,16s-16-7.163-16-16v-88L144,376z"/>
	<path style="fill:#592C02;" d="M256,376v72c0,8.837,7.163,16,16,16s16-7.163,16-16v-88L256,376z"/>
</g>
<path style="fill:#DE0418;" d="M200,64L200,64c92.784,0,168,75.216,168,168l0,0c0,92.784-75.216,168-168,168l0,0
	c-92.784,0-168-75.216-168-168l0,0C32,139.216,107.216,64,200,64z"/>
<path style="fill:#FCE9CC;" d="M200,96L200,96c75.111,0,136,60.889,136,136l0,0c0,75.111-60.889,136-136,136l0,0
	c-75.111,0-136-60.889-136-136l0,0C64,156.889,124.889,96,200,96z"/>
<path style="fill:#DE0418;" d="M200,128L200,128c57.438,0,104,46.562,104,104l0,0c0,57.438-46.562,104-104,104l0,0
	c-57.438,0-104-46.562-104-104l0,0C96,174.562,142.562,128,200,128z"/>
<path style="fill:#FCE9CC;" d="M200,160L200,160c39.764,0,72,32.236,72,72l0,0c0,39.764-32.236,72-72,72l0,0
	c-39.764,0-72-32.236-72-72l0,0C128,192.236,160.236,160,200,160z"/>
<path style="fill:#DE0418;" d="M200,192L200,192c22.091,0,40,17.909,40,40l0,0c0,22.091-17.909,40-40,40l0,0
	c-22.091,0-40-17.909-40-40l0,0C160,209.909,177.909,192,200,192z"/>
<path style="fill:#B3B3B3;" d="M194.342,226.345l64.002-64.002l11.314,11.314l-64.002,64.002L194.342,226.345z"/>
<path style="fill:#6CBBC7;" d="M256,152v24h24l80-80l-24-24L256,152z"/>
<path style="fill:#FFA900;" d="M432,32l-32,32h-32V32l32-32v32H432z"/>
<g>
</g>
<g>
</g>
<g>
</g>
<g>
</g>
<g>
</g>
<g>
</g>
<g>
</g>
<g>
</g>
<g>
</g>
<g>
</g>
<g>
</g>
<g>
</g>
<g>
</g>
<g>
</g>
<g>
</g>
</svg>
