<?xml version="1.0" encoding="iso-8859-1"?>
<!-- Generator: Adobe Illustrator 19.0.0, SVG Export Plug-In . SVG Version: 6.00 Build 0)  -->
<svg version="1.1" id="Capa_1" xmlns="http://www.w3.org/2000/svg" xmlns:xlink="http://www.w3.org/1999/xlink" x="0px" y="0px"
	 viewBox="0 0 464 464" style="enable-background:new 0 0 464 464;" xml:space="preserve">
<path style="fill:#FBBF00;" d="M144,256c-35.346,0-64,28.654-64,64v32h64v112h88V256H144z"/>
<path style="fill:#6CBBC7;" d="M320,256h-88v208h88V352h64v-32C384,284.654,355.346,256,320,256z"/>
<path style="fill:#FF6536;" d="M304,256v8c0,39.764-32.236,72-72,72s-72-32.236-72-72v-8h48v8c0,13.255,10.745,24,24,24
	c13.255,0,24-10.745,24-24v-8H304z"/>
<g>
	<path style="fill:#FCE9CC;" d="M144,104v64c0,48.601,39.399,88,88,88s88-39.399,88-88v-64H144z"/>
	<path style="fill:#FCE9CC;" d="M208,248v16c0,13.255,10.745,24,24,24c13.255,0,24-10.745,24-24v-16H208z"/>
	<path style="fill:#FCE9CC;" d="M96,352h48v112H96V352z"/>
	<path style="fill:#FCE9CC;" d="M320,352h48v112h-48V352z"/>
</g>
<g>
	<path style="fill:#763A02;" d="M184,176h16v-16h16v-16h-16v-16h-16v16h-16v16h16V176z"/>
	<path style="fill:#763A02;" d="M296,144h-16v-16h-16v16h-16v16h16v16h16v-16h16V144z"/>
</g>
<path style="fill:#FBBF00;" d="M240,216h-16c-13.255,0-24-10.745-24-24h-16c0.026,22.08,17.92,39.974,40,40h16
	c22.08-0.026,39.974-17.92,40-40h-16C264,205.255,253.255,216,240,216z"/>
<g>
	<circle style="fill:#DE0418;" cx="232" cy="176" r="16"/>
	<path style="fill:#DE0418;" d="M128,168c8.837,0,16-7.163,16-16V56c0-8.837-7.163-16-16-16s-16,7.163-16,16v8
		c-13.255,0-24,10.745-24,24h-8c-8.837,0-16,7.163-16,16s7.163,16,16,16h8c0,13.255,10.745,24,24,24v8
		C112,160.837,119.163,168,128,168z"/>
	<path style="fill:#DE0418;" d="M336,168c-8.837,0-16-7.163-16-16V56c0-8.837,7.163-16,16-16s16,7.163,16,16v8
		c13.255,0,24,10.745,24,24h8c8.837,0,16,7.163,16,16s-7.163,16-16,16h-8c0,13.255-10.745,24-24,24v8
		C352,160.837,344.837,168,336,168z"/>
</g>
<path style="fill:#6CBBC7;" d="M144,104V16c0-8.837,7.163-16,16-16h144c8.837,0,16,7.163,16,16v88H144z"/>
<path style="fill:#FBBF00;" d="M144,72h176v32H144V72z"/>
<g>
	<path style="fill:#FF6536;" d="M144,352H80c-8.837,0-16,7.163-16,16v16c0,8.837,7.163,16,16,16s16-7.163,16-16
		c0,8.837,7.163,16,16,16s16-7.163,16-16c0,8.837,7.163,16,16,16s16-7.163,16-16v-16C160,359.163,152.837,352,144,352z"/>
	<path style="fill:#FF6536;" d="M384,352h-64c-8.837,0-16,7.163-16,16v16c0,8.837,7.163,16,16,16s16-7.163,16-16
		c0,8.837,7.163,16,16,16s16-7.163,16-16c0,8.837,7.163,16,16,16s16-7.163,16-16v-16C400,359.163,392.837,352,384,352z"/>
</g>
<g>
</g>
<g>
</g>
<g>
</g>
<g>
</g>
<g>
</g>
<g>
</g>
<g>
</g>
<g>
</g>
<g>
</g>
<g>
</g>
<g>
</g>
<g>
</g>
<g>
</g>
<g>
</g>
<g>
</g>
</svg>
