<?xml version="1.0" encoding="iso-8859-1"?>
<!-- Generator: Adobe Illustrator 19.0.0, SVG Export Plug-In . SVG Version: 6.00 Build 0)  -->
<svg version="1.1" id="Capa_1" xmlns="http://www.w3.org/2000/svg" xmlns:xlink="http://www.w3.org/1999/xlink" x="0px" y="0px"
	 viewBox="0 0 464 464" style="enable-background:new 0 0 464 464;" xml:space="preserve">
<g>
	<path style="fill:#DE0418;" d="M56,232h352c-97.202,0-176-78.798-176-176C232,153.202,153.202,232,56,232z"/>
	<path style="fill:#DE0418;" d="M296,16h72l-24,24l24,24h-72V16z"/>
</g>
<path style="fill:#FF421D;" d="M232,0h64v48h-64V0z"/>
<g>
	<path style="fill:#FFA900;" d="M224,0h16v136h-16V0z"/>
	<path style="fill:#FFA900;" d="M408,232H272L232,64l-40,168H56l176,40L408,232z"/>
</g>
<path style="fill:#FF6536;" d="M72,232h320v232H72V232z"/>
<path style="fill:#FCE9CC;" d="M152,464V352c44.183,0,80-35.817,80-80v-40v40c0,44.183,35.817,80,80,80v112H152z"/>
<g>
	<path style="fill:#FDB62F;" d="M72,232h48v232H72V232z"/>
	<path style="fill:#FDB62F;" d="M344,232h48v232h-48V232z"/>
</g>
<g>
	<path style="fill:#FF421D;" d="M56,232v4c0,37.555,30.445,68,68,68s68-30.445,68-68v-4H56z"/>
	<path style="fill:#FF421D;" d="M272,232v4c0,37.555,30.445,68,68,68s68-30.445,68-68v-4H272z"/>
</g>
<path style="fill:#FDB62F;" d="M192,232h80v32c0,22.091-17.909,40-40,40s-40-17.909-40-40V232z"/>
<g>
</g>
<g>
</g>
<g>
</g>
<g>
</g>
<g>
</g>
<g>
</g>
<g>
</g>
<g>
</g>
<g>
</g>
<g>
</g>
<g>
</g>
<g>
</g>
<g>
</g>
<g>
</g>
<g>
</g>
</svg>
