<?xml version="1.0" encoding="iso-8859-1"?>
<!-- Generator: Adobe Illustrator 19.0.0, SVG Export Plug-In . SVG Version: 6.00 Build 0)  -->
<svg version="1.1" id="Capa_1" xmlns="http://www.w3.org/2000/svg" xmlns:xlink="http://www.w3.org/1999/xlink" x="0px" y="0px"
	 viewBox="0 0 464 464" style="enable-background:new 0 0 464 464;" xml:space="preserve">
<path style="fill:#FCE9CC;" d="M80,0h304v464H80V0z"/>
<path style="fill:#DE0418;" d="M232,304l-76.4-76.4c-7.427-7.426-11.599-17.498-11.6-28c0-21.87,17.73-39.6,39.6-39.6h0
	c10.502,0.001,20.574,4.173,28,11.6L232,192l20.4-20.4c7.426-7.427,17.498-11.599,28-11.6c21.87,0,39.6,17.73,39.6,39.6l0,0
	c-0.001,10.502-4.173,20.574-11.6,28L232,304z"/>
<g>
	<path style="fill:#FF421D;" d="M152,96l-35.032-35.032c-3.182-3.183-4.969-7.499-4.968-12C112,39.597,119.597,32,128.968,32l0,0
		c4.501-0.001,8.817,1.786,12,4.968L152,48l11.032-11.032c3.183-3.182,7.499-4.969,12-4.968C184.403,32,192,39.597,192,48.968l0,0
		c0.001,4.501-1.786,8.817-4.968,12L152,96z"/>
	<path style="fill:#FF421D;" d="M312,432l-35.032-35.032c-3.182-3.183-4.969-7.499-4.968-12c0-9.371,7.597-16.968,16.968-16.968
		c4.501-0.001,8.817,1.786,12,4.968L312,384l11.032-11.032c3.183-3.182,7.499-4.969,12-4.968c9.371,0,16.968,7.597,16.968,16.968
		c0.001,4.501-1.786,8.817-4.968,12L312,432z"/>
</g>
<g>
</g>
<g>
</g>
<g>
</g>
<g>
</g>
<g>
</g>
<g>
</g>
<g>
</g>
<g>
</g>
<g>
</g>
<g>
</g>
<g>
</g>
<g>
</g>
<g>
</g>
<g>
</g>
<g>
</g>
</svg>
