<?xml version="1.0" encoding="iso-8859-1"?>
<!-- Generator: Adobe Illustrator 19.0.0, SVG Export Plug-In . SVG Version: 6.00 Build 0)  -->
<svg version="1.1" id="Capa_1" xmlns="http://www.w3.org/2000/svg" xmlns:xlink="http://www.w3.org/1999/xlink" x="0px" y="0px"
	 viewBox="0 0 472 472" style="enable-background:new 0 0 472 472;" xml:space="preserve">
<path style="fill:#808080;" d="M424,364.489L424,364.489c26.51,0,48,21.49,48,48l0,0c0,26.51-21.49,48-48,48l0,0
	c-26.51,0-48-21.49-48-48l0,0C376,385.98,397.49,364.489,424,364.489z"/>
<g>
	<path style="fill:#763A02;" d="M32,404.489H16v-8c0.04-35.33,28.67-63.96,64-64h32v16H80c-26.497,0.031-47.969,21.503-48,48
		V404.489z"/>
	<path style="fill:#763A02;" d="M56,270.601c0,65.108,52.78,117.888,117.888,117.888c41.068,0,79.177-21.373,100.592-56.416
		L416,100.489l-72-72L112.416,170.017C77.375,191.431,56.003,229.536,56,270.601z"/>
</g>
<g>
	<path style="fill:#FFA900;" d="M347.998,8.486l0.006-0.006c6.626-6.626,17.37-6.626,23.996,0l64.002,64.002
		c6.626,6.626,6.626,17.37,0,23.996l-0.006,0.006c-6.626,6.626-17.37,6.626-23.996,0l-64.002-64.002
		C341.372,25.856,341.372,15.113,347.998,8.486z"/>
	<path style="fill:#FFA900;" d="M246.352,66.889c5.61-3.74,13.081-3,17.848,1.768l111.6,111.6
		c4.768,4.767,5.508,12.238,1.768,17.848c-4.335,6.498-13.117,8.252-19.615,3.917c-0.774-0.516-1.495-1.108-2.153-1.765
		l-111.6-111.6c-5.524-5.523-5.524-14.479-0.001-20.003C244.857,67.997,245.578,67.406,246.352,66.889z"/>
</g>
<path style="fill:#B3B3B3;" d="M360,364.489L360,364.489c26.51,0,48,21.49,48,48l0,0c0,26.51-21.49,48-48,48l0,0
	c-26.51,0-48-21.49-48-48l0,0C312,385.98,333.49,364.489,360,364.489z"/>
<g>
	<path style="fill:#FF421D;" d="M16,420.489h16v16H16V420.489z"/>
	<path style="fill:#FF421D;" d="M16,452.489h16v16H16V452.489z"/>
	<path style="fill:#FF421D;" d="M32,436.489h16v16H32V436.489z"/>
	<path style="fill:#FF421D;" d="M0,436.489h16v16H0V436.489z"/>
</g>
<path style="fill:#FFA900;" d="M208,316.489L208,316.489c39.764,0,72,32.236,72,72l0,0c0,39.764-32.236,72-72,72l0,0
	c-39.764,0-72-32.236-72-72l0,0C136,348.725,168.236,316.489,208,316.489z"/>
<path style="fill:#763A02;" d="M208,348.489L208,348.489c22.091,0,40,17.909,40,40l0,0c0,22.091-17.909,40-40,40l0,0
	c-22.091,0-40-17.909-40-40l0,0C168,366.398,185.909,348.489,208,348.489z"/>
<g>
</g>
<g>
</g>
<g>
</g>
<g>
</g>
<g>
</g>
<g>
</g>
<g>
</g>
<g>
</g>
<g>
</g>
<g>
</g>
<g>
</g>
<g>
</g>
<g>
</g>
<g>
</g>
<g>
</g>
</svg>
