<?xml version="1.0" encoding="iso-8859-1"?>
<!-- Generator: Adobe Illustrator 19.0.0, SVG Export Plug-In . SVG Version: 6.00 Build 0)  -->
<svg version="1.1" id="Capa_1" xmlns="http://www.w3.org/2000/svg" xmlns:xlink="http://www.w3.org/1999/xlink" x="0px" y="0px"
	 viewBox="0 0 464 464" style="enable-background:new 0 0 464 464;" xml:space="preserve">
<path style="fill:#FDB62F;" d="M212,368h40v96h-40V368z"/>
<path style="fill:#6CBBC7;" d="M360,200h-24c37.555,0,68-30.445,68-68s-30.445-68-68-68h-28c0-35.346-28.654-64-64-64h-32
	c-35.346,0-64,28.654-64,64h-28c-37.555,0-68,30.445-68,68s30.445,68,68,68h-16c-37.555,0-68,30.445-68,68s30.445,68,68,68h42.088
	c17.623,45.237,68.581,67.622,113.817,49.999c22.93-8.933,41.066-27.069,49.999-49.999H360c37.555,0,68-30.445,68-68
	S397.555,200,360,200z"/>
<g>
	<path style="fill:#36717A;" d="M204,160h-16v-20c0-15.464-12.536-28-28-28s-28,12.536-28,28v20h-16v-20c0-24.301,19.699-44,44-44
		s44,19.699,44,44V160z"/>
	<path style="fill:#36717A;" d="M340,160h-16v-20c0-15.464-12.536-28-28-28s-28,12.536-28,28v20h-16v-20c0-24.301,19.699-44,44-44
		s44,19.699,44,44V160z"/>
	<path style="fill:#36717A;" d="M228,256c-26.497-0.031-47.969-21.503-48-48v-16h16v16c0,17.673,14.327,32,32,32s32-14.327,32-32
		v-16h16v16C275.969,234.497,254.497,255.969,228,256z"/>
</g>
<g>
</g>
<g>
</g>
<g>
</g>
<g>
</g>
<g>
</g>
<g>
</g>
<g>
</g>
<g>
</g>
<g>
</g>
<g>
</g>
<g>
</g>
<g>
</g>
<g>
</g>
<g>
</g>
<g>
</g>
</svg>
