<?xml version="1.0" encoding="iso-8859-1"?>
<!-- Generator: Adobe Illustrator 19.0.0, SVG Export Plug-In . SVG Version: 6.00 Build 0)  -->
<svg version="1.1" id="Capa_1" xmlns="http://www.w3.org/2000/svg" xmlns:xlink="http://www.w3.org/1999/xlink" x="0px" y="0px"
	 viewBox="0 0 464 464" style="enable-background:new 0 0 464 464;" xml:space="preserve">
<path style="fill:#FF421D;" d="M224,88h16v48h-16V88z"/>
<path style="fill:#FFA900;" d="M392,352L392,352c30.928,0,56,25.072,56,56l0,0c0,30.928-25.072,56-56,56l0,0
	c-30.928,0-56-25.072-56-56l0,0C336,377.072,361.072,352,392,352z"/>
<path style="fill:#FDB62F;" d="M136,224c-66.274,0-120,53.726-120,120s53.726,120,120,120s120-53.726,120-120S202.274,224,136,224z
	 M136,368c-13.255,0-24-10.745-24-24s10.745-24,24-24s24,10.745,24,24S149.255,368,136,368z"/>
<g>
	<path style="fill:#DE0418;" d="M120,80v246.232c9.05-8.305,22.95-8.305,32,0V80c-5.301-0.753-10.646-1.151-16-1.192
		C130.646,78.849,125.301,79.247,120,80z"/>
	<path style="fill:#DE0418;" d="M152,160h64c88.366,0,160,71.634,160,160v72c0,8.837,7.163,16,16,16s16-7.163,16-16v-72
		c0-106.039-85.961-192-192-192h-64V160z"/>
	<path style="fill:#DE0418;" d="M128,24h16v48h-16V24z"/>
</g>
<path style="fill:#FF421D;" d="M56,336h56v16H56V336z"/>
<g>
	<path style="fill:#FDB62F;" d="M200,96h64V80c0-8.837-7.163-16-16-16h-16C214.327,64,200,78.327,200,96z"/>
	<path style="fill:#FDB62F;" d="M104,64h64v32h-64V64z"/>
</g>
<path style="fill:#FF421D;" d="M160,336h56v16h-56V336z"/>
<path style="fill:#FDB62F;" d="M136,0L136,0c8.837,0,16,7.163,16,16l0,0c0,8.837-7.163,16-16,16l0,0c-8.837,0-16-7.163-16-16l0,0
	C120,7.163,127.163,0,136,0z"/>
<g>
</g>
<g>
</g>
<g>
</g>
<g>
</g>
<g>
</g>
<g>
</g>
<g>
</g>
<g>
</g>
<g>
</g>
<g>
</g>
<g>
</g>
<g>
</g>
<g>
</g>
<g>
</g>
<g>
</g>
</svg>
