<?xml version="1.0" encoding="iso-8859-1"?>
<!-- Generator: Adobe Illustrator 19.0.0, SVG Export Plug-In . SVG Version: 6.00 Build 0)  -->
<svg version="1.1" id="Capa_1" xmlns="http://www.w3.org/2000/svg" xmlns:xlink="http://www.w3.org/1999/xlink" x="0px" y="0px"
	 viewBox="0 0 472 472" style="enable-background:new 0 0 472 472;" xml:space="preserve">
<g>
	<circle style="fill:#592C02;" cx="131.98" cy="24" r="24"/>
	<circle style="fill:#592C02;" cx="339.98" cy="24" r="24"/>
</g>
<path style="fill:#E47700;" d="M331.98,256v184c0,17.673-14.327,32-32,32c-17.673,0-32-14.327-32-32v-64c0-17.673-14.327-32-32-32
	s-32,14.327-32,32v64c0,17.673-14.327,32-32,32s-32-14.327-32-32V256c0-8.779-7.117-15.896-15.896-15.896c-0.035,0-0.07,0-0.104,0
	c-8.738,0.057-15.792,7.157-15.792,15.896l-0.168,88c0,13.255-10.745,24-24,24s-24-10.745-24-24v-88c0-35.346,28.654-64,64-64
	c8.837,0,16-7.163,16-16l0.168-120c0.026-17.654,14.346-31.952,32-31.952L299.98,24.2c17.673,0,32,14.327,32,32V176
	c0,8.837,7.163,16,16,16s16-7.163,16-16V96c0-13.255,10.745-24,24-24s24,10.745,24,24v80c0,35.346-28.654,64-64,64
	C339.143,240,331.98,247.163,331.98,256z"/>
<path style="fill:#FCE9CC;" d="M235.98,72c35.346,0,64,28.654,64,64v8c0,26.51-21.49,48-48,48h-32c-26.51,0-48-21.49-48-48v-8
	C171.98,100.654,200.634,72,235.98,72z"/>
<g>
	<path style="fill:#592C02;" d="M171.98,48L171.98,48c4.418,0,8,3.582,8,8l0,0c0,4.418-3.582,8-8,8l0,0c-4.418,0-8-3.582-8-8l0,0
		C163.98,51.582,167.562,48,171.98,48z"/>
	<path style="fill:#592C02;" d="M299.98,48L299.98,48c4.418,0,8,3.582,8,8l0,0c0,4.418-3.582,8-8,8l0,0c-4.418,0-8-3.582-8-8l0,0
		C291.98,51.582,295.562,48,299.98,48z"/>
	<path style="fill:#592C02;" d="M259.98,136v8c0,4.418-3.582,8-8,8c-4.418,0-8-3.582-8-8v-18.224
		c7.653-4.418,10.275-14.204,5.856-21.856s-14.204-10.275-21.856-5.856c-7.653,4.418-10.275,14.204-5.856,21.856
		c1.404,2.432,3.424,4.452,5.856,5.856V144c0,4.418-3.582,8-8,8s-8-3.582-8-8v-8h-16v8c-0.058,13.197,10.593,23.943,23.79,24.002
		c5.995,0.027,11.781-2.201,16.21-6.242c9.75,8.894,24.864,8.2,33.758-1.55c4.04-4.429,6.268-10.215,6.242-16.21v-8H259.98z"/>
</g>
<path style="fill:#FDB62F;" d="M235.98,232l-48-16v48l48-16V232z"/>
<path style="fill:#6CBBC7;" d="M283.98,216l-48,16v16l48,16V216z"/>
<g>
</g>
<g>
</g>
<g>
</g>
<g>
</g>
<g>
</g>
<g>
</g>
<g>
</g>
<g>
</g>
<g>
</g>
<g>
</g>
<g>
</g>
<g>
</g>
<g>
</g>
<g>
</g>
<g>
</g>
</svg>
