<?xml version="1.0" encoding="iso-8859-1"?>
<!-- Generator: Adobe Illustrator 19.0.0, SVG Export Plug-In . SVG Version: 6.00 Build 0)  -->
<svg version="1.1" id="Capa_1" xmlns="http://www.w3.org/2000/svg" xmlns:xlink="http://www.w3.org/1999/xlink" x="0px" y="0px"
	 viewBox="0 0 472 472" style="enable-background:new 0 0 472 472;" xml:space="preserve">
<g>
	<path style="fill:#FF421D;" d="M124,116.856V112C124,50.144,174.144,0,236,0s112,50.144,112,112v9.6
		c0.002,29.705-11.796,58.194-32.8,79.2L244,272l-81.352-70.504C138.101,180.222,123.999,149.339,124,116.856L124,116.856z"/>
	<path style="fill:#FF421D;" d="M228,304v-16c0-8.837,7.163-16,16-16c8.837,0,16,7.163,16,16v16H228z"/>
</g>
<path style="fill:#763A02;" d="M252,472h-16v-16c0-8.837-7.163-16-16-16h-16c-17.673,0-32-14.327-32-32s14.327-32,32-32h64
	c8.837,0,16-7.163,16-16s-7.163-16-16-16c-17.673,0-32-14.327-32-32v-8h16v8c0,8.837,7.163,16,16,16c17.673,0,32,14.327,32,32
	s-14.327,32-32,32h-64c-8.837,0-16,7.163-16,16s7.163,16,16,16h16c17.673,0,32,14.327,32,32V472z"/>
<g>
	<path style="fill:#DE0418;" d="M324,112h-16c-0.044-39.746-32.254-71.956-72-72V24C284.579,24.053,323.947,63.421,324,112z"/>
	<path style="fill:#DE0418;" d="M308,128h16v16h-16V128z"/>
</g>
<g>
</g>
<g>
</g>
<g>
</g>
<g>
</g>
<g>
</g>
<g>
</g>
<g>
</g>
<g>
</g>
<g>
</g>
<g>
</g>
<g>
</g>
<g>
</g>
<g>
</g>
<g>
</g>
<g>
</g>
</svg>
